<svg xmlns="http://www.w3.org/2000/svg" version="1.1" xmlns:xlink="http://www.w3.org/1999/xlink" xmlns:svgjs="http://svgjs.dev/svgjs" width="1440" height="560" preserveAspectRatio="none" viewBox="0 0 1440 560"><g mask="url(&quot;#SvgjsMask1002&quot;)" fill="none"><rect width="1440" height="560" x="0" y="0" fill="rgba(233, 227, 213, 1)"></rect><path d="M0,568.257C106.283,545.892,130.419,401.388,211.555,329.185C275.302,272.456,367.081,258.034,422,192.721C488.461,113.681,562.477,23.163,555.509,-79.87C548.486,-183.715,457.215,-258.544,386.328,-334.755C317.713,-408.524,249.252,-491.871,151.113,-514.643C54.694,-537.016,-44.442,-498.155,-133.726,-455.427C-213.243,-417.373,-281.315,-359.19,-328.849,-284.949C-372.298,-217.088,-363.909,-132.415,-389.468,-55.997C-422.443,42.594,-523.822,127.289,-500.624,228.627C-477.709,328.729,-362.703,374.491,-277.722,432.143C-190.644,491.218,-102.971,589.925,0,568.257" fill="#cabc9b"></path><path d="M1440 1123.2C1543.659 1113.202 1623.948 1038.78 1713.066 984.899 1804.991 929.321 1912.539 892.6800000000001 1970.6770000000001 802.352 2032.6660000000002 706.0409999999999 2053.964 587.344 2042.28 473.405 2030.318 356.757 1993.9099999999999 233.39 1904.548 157.46699999999998 1818.2559999999999 84.15199999999999 1692.566 98.03800000000001 1580.601 81.156 1484.311 66.637 1390.429 47.10299999999995 1294.81 65.52999999999997 1191.984 85.34500000000003 1081.462 110.76799999999997 1013.505 190.44 945.688 269.948 929.255 383.044 934.982 487.389 940.127 581.121 1012.415 652.475 1043.722 740.9739999999999 1079.1770000000001 841.1990000000001 1054.326 967.2529999999999 1130.844 1041.057 1209.176 1116.6109999999999 1331.671 1133.649 1440 1123.2" fill="#ffffff"></path></g><defs><mask id="SvgjsMask1002"><rect width="1440" height="560" fill="#ffffff"></rect></mask></defs></svg>