<svg xmlns="http://www.w3.org/2000/svg" version="1.1" xmlns:xlink="http://www.w3.org/1999/xlink" xmlns:svgjs="http://svgjs.dev/svgjs" width="344" height="536" preserveAspectRatio="none" viewBox="0 0 344 536"><g mask="url(&quot;#SvgjsMask1039&quot;)" fill="none"><rect width="344" height="536" x="0" y="0" fill="rgba(233, 227, 213, 1)"></rect><path d="M0,250.057C45.888,245.751,84.663,215.65,118.428,184.278C148.154,156.659,158.921,116.804,180.443,82.406C206.011,41.541,259.662,11.195,256.831,-36.927C254.027,-84.581,198.22,-108.596,167.076,-144.773C135.806,-181.096,120.668,-242.031,73.405,-249.994C25.115,-258.13,-6.163,-194.775,-53.417,-181.922C-102.263,-168.636,-162.656,-206.869,-202.046,-175.074C-240.494,-144.039,-243.81,-82.912,-236.64,-34.024C-230.187,9.973,-182.716,34.575,-165.297,75.489C-147.148,118.117,-165.485,174.29,-133.63,207.932C-100.854,242.546,-47.461,254.511,0,250.057" fill="#c9ba98"></path><path d="M344 731.241C381.229 732.8240000000001 414.683 714.1949999999999 448.598 698.7570000000001 488.027 680.809 545.419 675.202 558.106 633.779 571.25 590.864 520.307 555.163 505.563 512.771 494.451 480.821 502.18100000000004 443.51800000000003 482.392 416.08299999999997 461.856 387.613 429.176 370.51300000000003 395.589 360.305 361.789 350.033 326.874 354.124 291.779 358.153 249.876 362.964 200.12 355.582 170.996 386.091 141.901 416.569 146.568 465.85699999999997 148.798 507.934 150.728 544.36 165.81 577.341 182.84 609.599 198.991 640.193 217.353 669.2570000000001 244.966 690.0989999999999 274.087 712.079 307.548 729.691 344 731.241" fill="#ffffff"></path></g><defs><mask id="SvgjsMask1039"><rect width="344" height="536" fill="#ffffff"></rect></mask></defs></svg>